<?xml version="1.0" standalone="no"?>
<!DOCTYPE svg PUBLIC "-//W3C//DTD SVG 20010904//EN"
 "http://www.w3.org/TR/2001/REC-SVG-20010904/DTD/svg10.dtd">
<svg version="1.0" xmlns="http://www.w3.org/2000/svg"
 width="500.000000pt" height="500.000000pt" viewBox="0 0 500.000000 500.000000"
 preserveAspectRatio="xMidYMid meet">
<metadata>
Created by potrace 1.16, written by Peter Selinger 2001-2019
</metadata>
<g transform="translate(0.000000,500.000000) scale(0.100000,-0.100000)"
fill="#000000" stroke="none">
<path d="M2685 4815 c-5 -2 -48 -15 -94 -30 -112 -36 -284 -117 -316 -149 -33
-33 -32 -70 4 -155 62 -146 61 -227 -5 -358 -39 -77 -39 -103 0 -128 51 -34
116 30 162 160 28 78 24 228 -9 330 -15 43 -25 80 -24 80 4 3 231 97 255 106
20 8 25 3 51 -54 86 -188 228 -290 426 -304 220 -15 396 87 493 286 l38 79
125 -52 c68 -29 132 -55 141 -59 15 -5 14 -12 -9 -79 -34 -99 -42 -232 -18
-314 25 -87 59 -144 128 -212 158 -156 315 -193 530 -126 44 14 83 22 87 17 4
-4 32 -68 63 -141 l55 -132 -71 -33 c-142 -66 -235 -169 -277 -305 -24 -77
-25 -125 -4 -142 8 -8 14 -9 13 -4 -4 23 3 26 22 8 11 -10 20 -14 19 -9 -5 24
1 27 21 9 15 -14 20 -15 17 -4 -2 8 2 14 8 13 6 -1 14 17 17 41 19 133 119
244 264 290 72 24 103 55 103 105 0 72 -118 362 -174 429 -36 42 -76 42 -155
2 -114 -57 -252 -58 -354 -2 -61 33 -128 106 -164 180 -24 49 -28 69 -28 147
0 83 3 96 38 171 44 96 45 113 12 152 -44 52 -364 186 -447 186 -49 1 -73 -23
-98 -100 -28 -82 -74 -149 -136 -196 -68 -52 -132 -73 -229 -73 -66 0 -90 5
-136 26 -105 49 -171 125 -215 248 -13 36 -33 74 -45 84 -19 15 -57 21 -84 12z"/>
<path d="M884 3739 c-4 -7 -7 -31 -7 -54 0 -23 3 -47 7 -54 5 -8 120 -11 409
-11 l402 0 0 65 0 65 -402 0 c-289 0 -404 -3 -409 -11z"/>
<path d="M1120 3341 c-124 -41 -191 -129 -191 -252 -1 -97 53 -184 142 -230
121 -61 278 -8 341 115 11 23 26 44 32 48 6 4 90 8 187 8 195 0 180 -5 195 64
3 11 9 25 15 33 17 20 2 22 -211 30 l-194 8 -23 40 c-29 53 -76 99 -120 120
-41 20 -136 28 -173 16z m115 -135 c100 -42 97 -189 -5 -230 -50 -20 -63 -20
-101 -1 -66 34 -91 135 -47 190 22 28 69 54 101 55 10 0 33 -6 52 -14z"/>
<path d="M342 2724 c-156 -78 -190 -289 -66 -409 25 -25 64 -50 91 -59 58 -20
143 -21 187 -2 50 21 111 80 135 131 l21 45 69 0 c48 0 72 4 81 15 7 8 17 12
23 8 5 -3 7 -1 4 4 -8 13 27 46 38 36 4 -5 5 -3 2 3 -7 12 26 48 35 39 2 -3 5
2 5 10 0 13 -21 15 -128 15 l-129 0 -24 49 c-65 128 -217 178 -344 115z m201
-137 c63 -59 56 -154 -15 -197 -62 -38 -134 -22 -175 39 -57 84 4 191 108 191
40 0 53 -5 82 -33z"/>
<path d="M330 1001 c-48 -10 -96 -36 -115 -63 -27 -39 -37 -95 -25 -133 18
-54 61 -81 188 -121 199 -62 238 -92 229 -177 -2 -27 -13 -61 -24 -75 -75
-101 -280 -102 -374 -1 -20 21 -33 29 -40 22 -16 -16 -2 -36 49 -70 59 -40
108 -53 198 -53 59 0 81 5 125 28 120 63 135 224 28 290 -19 11 -88 37 -154
57 -66 20 -134 46 -152 56 -74 46 -57 160 30 200 79 35 179 22 250 -33 30 -24
38 -26 43 -14 3 8 3 20 -1 26 -12 19 -80 48 -140 59 -64 12 -64 12 -115 2z"/>
<path d="M906 842 c-38 -86 -86 -190 -106 -229 l-37 -73 28 0 c22 0 29 5 29
19 0 11 12 47 26 80 l27 61 108 0 108 0 28 -80 c24 -68 31 -80 51 -80 27 0 27
1 3 42 -11 18 -56 116 -101 218 -45 102 -85 188 -89 192 -4 5 -38 -63 -75
-150z m124 -15 c24 -53 41 -100 38 -103 -3 -2 -46 -3 -95 -2 l-90 3 46 107
c25 60 48 105 52 100 4 -4 26 -51 49 -105z"/>
<path d="M1325 665 c0 -328 0 -335 20 -335 20 0 20 6 17 282 l-3 283 112 -105
c289 -270 319 -307 337 -413 6 -32 12 -43 28 -45 19 -3 20 1 13 70 -10 94 -10
432 0 526 l7 72 -26 0 c-26 0 -26 0 -19 -57 11 -87 11 -463 0 -463 -5 0 -12 8
-15 18 -11 35 -104 133 -228 241 -144 126 -184 171 -200 224 -7 22 -17 37 -27
37 -14 0 -16 -35 -16 -335z"/>
<path d="M2001 958 c11 -56 11 -530 0 -585 l-8 -43 146 0 c80 0 166 5 191 11
168 39 204 254 54 330 l-50 25 40 35 c36 32 40 40 43 95 5 74 -17 119 -73 148
-33 18 -61 21 -195 24 l-157 4 9 -44z m319 -3 c66 -34 90 -116 55 -185 -28
-54 -78 -70 -215 -70 l-120 0 0 135 0 135 125 0 c92 0 134 -4 155 -15z m50
-307 c57 -30 83 -76 77 -141 -5 -60 -30 -95 -87 -124 -40 -21 -59 -23 -182
-23 l-138 0 0 155 0 155 143 0 c128 0 147 -2 187 -22z"/>
<path d="M2710 863 l90 -138 0 -92 c0 -82 2 -93 18 -93 15 0 17 10 14 91 l-3
91 76 117 c43 64 87 126 98 139 l20 22 -25 0 c-16 0 -28 -8 -35 -22 -6 -13
-41 -70 -78 -127 l-67 -103 -74 113 c-40 63 -74 120 -74 127 0 6 -11 12 -25
12 -23 0 -18 -9 65 -137z"/>
<path d="M3166 984 c-4 -9 -5 -18 -4 -19 2 0 53 3 114 8 61 6 119 7 128 4 14
-6 16 -35 15 -274 0 -147 -4 -292 -8 -320 -7 -52 -7 -53 19 -53 l26 0 -8 70
c-5 39 -7 184 -6 323 l3 252 62 3 c34 2 92 -1 128 -6 55 -7 65 -6 60 5 -3 8
-5 17 -5 19 0 2 -117 4 -259 4 -231 0 -260 -2 -265 -16z"/>
<path d="M3875 770 l0 -230 170 2 c141 3 170 5 173 18 2 13 -20 15 -155 15
l-158 0 -3 93 -3 92 126 0 c103 0 125 3 125 15 0 12 -21 14 -122 12 l-123 -2
-3 93 -3 93 156 -3 c134 -3 155 -1 153 12 -3 12 -31 15 -168 18 l-165 2 0
-230z"/>
<path d="M4406 984 c-11 -29 -6 -32 28 -23 19 5 120 8 225 7 l191 -3 -216
-290 c-118 -159 -225 -302 -235 -317 l-20 -28 251 0 251 0 8 22 c5 13 8 24 7
25 0 1 -24 -3 -52 -8 -29 -5 -130 -8 -227 -7 l-175 3 234 315 c129 173 234
315 234 317 0 2 -112 3 -249 3 -218 0 -250 -2 -255 -16z"/>
</g>
</svg>
